<?xml version="1.0" encoding="UTF-8" standalone="no"?>
<!-- Created with Inkscape (http://www.inkscape.org/) -->

<svg
   xmlns:dc="http://purl.org/dc/elements/1.1/"
   xmlns:cc="http://creativecommons.org/ns#"
   xmlns:rdf="http://www.w3.org/1999/02/22-rdf-syntax-ns#"
   xmlns:svg="http://www.w3.org/2000/svg"
   xmlns="http://www.w3.org/2000/svg"
   xmlns:xlink="http://www.w3.org/1999/xlink"
   xmlns:sodipodi="http://sodipodi.sourceforge.net/DTD/sodipodi-0.dtd"
   xmlns:inkscape="http://www.inkscape.org/namespaces/inkscape"
   width="212.83688mm"
   height="99.678108mm"
   viewBox="0 0 212.83689 99.678107"
   version="1.1"
   id="svg8"
   inkscape:version="0.92.4 5da689c313, 2019-01-14"
   sodipodi:docname="v_drawing_iso26262.svg"
   inkscape:export-filename="/home/cy0/Safety/v-drawing_iso26262.png"
   inkscape:export-xdpi="500"
   inkscape:export-ydpi="500">
  <defs
     id="defs2">
    <marker
       inkscape:stockid="Arrow2Lend"
       orient="auto"
       refY="0"
       refX="0"
       id="marker4937"
       style="overflow:visible"
       inkscape:isstock="true">
      <path
         id="path4935"
         style="fill:#000000;fill-opacity:1;fill-rule:evenodd;stroke:#000000;stroke-width:0.625;stroke-linejoin:round;stroke-opacity:1"
         d="M 8.7185878,4.0337352 -2.2072895,0.01601326 8.7185884,-4.0017078 c -1.7454984,2.3720609 -1.7354408,5.6174519 -6e-7,8.035443 z"
         transform="matrix(-1.1,0,0,-1.1,-1.1,0)"
         inkscape:connector-curvature="0" />
    </marker>
    <marker
       inkscape:isstock="true"
       style="overflow:visible"
       id="marker4809"
       refX="0"
       refY="0"
       orient="auto"
       inkscape:stockid="Arrow2Lend"
       inkscape:collect="always">
      <path
         transform="matrix(-1.1,0,0,-1.1,-1.1,0)"
         d="M 8.7185878,4.0337352 -2.2072895,0.01601326 8.7185884,-4.0017078 c -1.7454984,2.3720609 -1.7354408,5.6174519 -6e-7,8.035443 z"
         style="fill:#000000;fill-opacity:1;fill-rule:evenodd;stroke:#000000;stroke-width:0.625;stroke-linejoin:round;stroke-opacity:1"
         id="path4807"
         inkscape:connector-curvature="0" />
    </marker>
    <marker
       inkscape:stockid="Arrow2Lend"
       orient="auto"
       refY="0"
       refX="0"
       id="marker4691"
       style="overflow:visible"
       inkscape:isstock="true"
       inkscape:collect="always">
      <path
         id="path4689"
         style="fill:#000000;fill-opacity:1;fill-rule:evenodd;stroke:#000000;stroke-width:0.625;stroke-linejoin:round;stroke-opacity:1"
         d="M 8.7185878,4.0337352 -2.2072895,0.01601326 8.7185884,-4.0017078 c -1.7454984,2.3720609 -1.7354408,5.6174519 -6e-7,8.035443 z"
         transform="matrix(-1.1,0,0,-1.1,-1.1,0)"
         inkscape:connector-curvature="0" />
    </marker>
    <marker
       inkscape:isstock="true"
       style="overflow:visible"
       id="marker3771"
       refX="0"
       refY="0"
       orient="auto"
       inkscape:stockid="Arrow2Lend">
      <path
         transform="matrix(-1.1,0,0,-1.1,-1.1,0)"
         d="M 8.7185878,4.0337352 -2.2072895,0.01601326 8.7185884,-4.0017078 c -1.7454984,2.3720609 -1.7354408,5.6174519 -6e-7,8.035443 z"
         style="fill:#000000;fill-opacity:1;fill-rule:evenodd;stroke:#000000;stroke-width:0.625;stroke-linejoin:round;stroke-opacity:1"
         id="path3769"
         inkscape:connector-curvature="0" />
    </marker>
    <marker
       inkscape:isstock="true"
       style="overflow:visible"
       id="marker3671"
       refX="0"
       refY="0"
       orient="auto"
       inkscape:stockid="Arrow2Lend">
      <path
         transform="matrix(-1.1,0,0,-1.1,-1.1,0)"
         d="M 8.7185878,4.0337352 -2.2072895,0.01601326 8.7185884,-4.0017078 c -1.7454984,2.3720609 -1.7354408,5.6174519 -6e-7,8.035443 z"
         style="fill:#000000;fill-opacity:1;fill-rule:evenodd;stroke:#000000;stroke-width:0.625;stroke-linejoin:round;stroke-opacity:1"
         id="path3669"
         inkscape:connector-curvature="0" />
    </marker>
    <marker
       inkscape:stockid="Arrow2Lend"
       orient="auto"
       refY="0"
       refX="0"
       id="marker3577"
       style="overflow:visible"
       inkscape:isstock="true">
      <path
         id="path3575"
         style="fill:#000000;fill-opacity:1;fill-rule:evenodd;stroke:#000000;stroke-width:0.625;stroke-linejoin:round;stroke-opacity:1"
         d="M 8.7185878,4.0337352 -2.2072895,0.01601326 8.7185884,-4.0017078 c -1.7454984,2.3720609 -1.7354408,5.6174519 -6e-7,8.035443 z"
         transform="matrix(-1.1,0,0,-1.1,-1.1,0)"
         inkscape:connector-curvature="0" />
    </marker>
    <marker
       inkscape:stockid="Arrow2Lend"
       orient="auto"
       refY="0"
       refX="0"
       id="marker3533"
       style="overflow:visible"
       inkscape:isstock="true">
      <path
         id="path3531"
         style="fill:#000000;fill-opacity:1;fill-rule:evenodd;stroke:#000000;stroke-width:0.625;stroke-linejoin:round;stroke-opacity:1"
         d="M 8.7185878,4.0337352 -2.2072895,0.01601326 8.7185884,-4.0017078 c -1.7454984,2.3720609 -1.7354408,5.6174519 -6e-7,8.035443 z"
         transform="matrix(-1.1,0,0,-1.1,-1.1,0)"
         inkscape:connector-curvature="0" />
    </marker>
    <marker
       inkscape:isstock="true"
       style="overflow:visible"
       id="marker3281"
       refX="0"
       refY="0"
       orient="auto"
       inkscape:stockid="Arrow2Lend"
       inkscape:collect="always">
      <path
         transform="matrix(-1.1,0,0,-1.1,-1.1,0)"
         d="M 8.7185878,4.0337352 -2.2072895,0.01601326 8.7185884,-4.0017078 c -1.7454984,2.3720609 -1.7354408,5.6174519 -6e-7,8.035443 z"
         style="fill:#000000;fill-opacity:1;fill-rule:evenodd;stroke:#000000;stroke-width:0.625;stroke-linejoin:round;stroke-opacity:1"
         id="path3279"
         inkscape:connector-curvature="0" />
    </marker>
    <marker
       inkscape:stockid="Arrow2Lend"
       orient="auto"
       refY="0"
       refX="0"
       id="marker3205"
       style="overflow:visible"
       inkscape:isstock="true"
       inkscape:collect="always">
      <path
         id="path3203"
         style="fill:#000000;fill-opacity:1;fill-rule:evenodd;stroke:#000000;stroke-width:0.625;stroke-linejoin:round;stroke-opacity:1"
         d="M 8.7185878,4.0337352 -2.2072895,0.01601326 8.7185884,-4.0017078 c -1.7454984,2.3720609 -1.7354408,5.6174519 -6e-7,8.035443 z"
         transform="matrix(-1.1,0,0,-1.1,-1.1,0)"
         inkscape:connector-curvature="0" />
    </marker>
    <marker
       inkscape:isstock="true"
       style="overflow:visible"
       id="marker7177"
       refX="0"
       refY="0"
       orient="auto"
       inkscape:stockid="Arrow2Lend"
       inkscape:collect="always">
      <path
         transform="matrix(-1.1,0,0,-1.1,-1.1,0)"
         d="M 8.7185878,4.0337352 -2.2072895,0.01601326 8.7185884,-4.0017078 c -1.7454984,2.3720609 -1.7354408,5.6174519 -6e-7,8.035443 z"
         style="fill:#000000;fill-opacity:1;fill-rule:evenodd;stroke:#000000;stroke-width:0.625;stroke-linejoin:round;stroke-opacity:1"
         id="path7175"
         inkscape:connector-curvature="0" />
    </marker>
    <marker
       inkscape:stockid="Arrow2Lstart"
       orient="auto"
       refY="0"
       refX="0"
       id="marker7095"
       style="overflow:visible"
       inkscape:isstock="true">
      <path
         id="path7093"
         style="fill:#000000;fill-opacity:1;fill-rule:evenodd;stroke:#000000;stroke-width:0.625;stroke-linejoin:round;stroke-opacity:1"
         d="M 8.7185878,4.0337352 -2.2072895,0.01601326 8.7185884,-4.0017078 c -1.7454984,2.3720609 -1.7354408,5.6174519 -6e-7,8.035443 z"
         transform="matrix(1.1,0,0,1.1,1.1,0)"
         inkscape:connector-curvature="0" />
    </marker>
    <marker
       inkscape:stockid="Arrow2Lstart"
       orient="auto"
       refY="0"
       refX="0"
       id="marker6923"
       style="overflow:visible"
       inkscape:isstock="true">
      <path
         id="path6921"
         style="fill:#000000;fill-opacity:1;fill-rule:evenodd;stroke:#000000;stroke-width:0.625;stroke-linejoin:round;stroke-opacity:1"
         d="M 8.7185878,4.0337352 -2.2072895,0.01601326 8.7185884,-4.0017078 c -1.7454984,2.3720609 -1.7354408,5.6174519 -6e-7,8.035443 z"
         transform="matrix(1.1,0,0,1.1,1.1,0)"
         inkscape:connector-curvature="0" />
    </marker>
    <linearGradient
       inkscape:collect="always"
       id="linearGradient2812">
      <stop
         style="stop-color:#000000;stop-opacity:1;"
         offset="0"
         id="stop2808" />
      <stop
         style="stop-color:#000000;stop-opacity:0;"
         offset="1"
         id="stop2810" />
    </linearGradient>
    <marker
       inkscape:stockid="Arrow1Lend"
       orient="auto"
       refY="0"
       refX="0"
       id="Arrow1Lend"
       style="overflow:visible"
       inkscape:isstock="true">
      <path
         id="path971"
         d="M 0,0 5,-5 -12.5,0 5,5 Z"
         style="fill:#000000;fill-opacity:1;fill-rule:evenodd;stroke:#000000;stroke-width:1.00000003pt;stroke-opacity:1"
         transform="matrix(-0.8,0,0,-0.8,-10,0)"
         inkscape:connector-curvature="0" />
    </marker>
    <marker
       inkscape:stockid="DiamondL"
       orient="auto"
       refY="0"
       refX="0"
       id="DiamondL"
       style="overflow:visible"
       inkscape:isstock="true">
      <path
         id="path1047"
         d="M 0,-7.0710768 -7.0710894,0 0,7.0710589 7.0710462,0 Z"
         style="fill:#000000;fill-opacity:1;fill-rule:evenodd;stroke:#000000;stroke-width:1.00000003pt;stroke-opacity:1"
         transform="scale(0.8)"
         inkscape:connector-curvature="0" />
    </marker>
    <marker
       inkscape:stockid="Arrow2Lstart"
       orient="auto"
       refY="0"
       refX="0"
       id="Arrow2Lstart"
       style="overflow:visible"
       inkscape:isstock="true">
      <path
         id="path986"
         style="fill:#000000;fill-opacity:1;fill-rule:evenodd;stroke:#000000;stroke-width:0.625;stroke-linejoin:round;stroke-opacity:1"
         d="M 8.7185878,4.0337352 -2.2072895,0.01601326 8.7185884,-4.0017078 c -1.7454984,2.3720609 -1.7354408,5.6174519 -6e-7,8.035443 z"
         transform="matrix(1.1,0,0,1.1,1.1,0)"
         inkscape:connector-curvature="0" />
    </marker>
    <linearGradient
       inkscape:collect="always"
       xlink:href="#linearGradient2812"
       id="linearGradient2816"
       x1="76.596542"
       y1="34.161221"
       x2="89.263657"
       y2="34.161221"
       gradientUnits="userSpaceOnUse"
       gradientTransform="matrix(1.6415421,0,0,1.6415421,-52.223001,-42.926583)" />
    <marker
       inkscape:isstock="true"
       style="overflow:visible"
       id="marker3752-7"
       refX="0"
       refY="0"
       orient="auto"
       inkscape:stockid="Arrow2Lstart">
      <path
         inkscape:connector-curvature="0"
         transform="matrix(1.1,0,0,1.1,1.1,0)"
         d="M 8.7185878,4.0337352 -2.2072895,0.01601326 8.7185884,-4.0017078 c -1.7454984,2.3720609 -1.7354408,5.6174519 -6e-7,8.035443 z"
         style="fill:#000000;fill-opacity:1;fill-rule:evenodd;stroke:#000000;stroke-width:0.625;stroke-linejoin:round;stroke-opacity:1"
         id="path3750-3" />
    </marker>
    <marker
       inkscape:isstock="true"
       style="overflow:visible"
       id="marker3752-7-5"
       refX="0"
       refY="0"
       orient="auto"
       inkscape:stockid="Arrow2Lstart">
      <path
         inkscape:connector-curvature="0"
         transform="matrix(1.1,0,0,1.1,1.1,0)"
         d="M 8.7185878,4.0337352 -2.2072895,0.01601326 8.7185884,-4.0017078 c -1.7454984,2.3720609 -1.7354408,5.6174519 -6e-7,8.035443 z"
         style="fill:#000000;fill-opacity:1;fill-rule:evenodd;stroke:#000000;stroke-width:0.625;stroke-linejoin:round;stroke-opacity:1"
         id="path3750-3-6" />
    </marker>
  </defs>
  <sodipodi:namedview
     id="base"
     pagecolor="#ffffff"
     bordercolor="#666666"
     borderopacity="1.0"
     inkscape:pageopacity="0.0"
     inkscape:pageshadow="2"
     inkscape:zoom="1.4"
     inkscape:cx="388.74623"
     inkscape:cy="214.2658"
     inkscape:document-units="mm"
     inkscape:current-layer="layer1"
     showgrid="false"
     inkscape:window-width="1920"
     inkscape:window-height="1128"
     inkscape:window-x="0"
     inkscape:window-y="44"
     inkscape:window-maximized="1"
     fit-margin-top="0"
     fit-margin-left="0"
     fit-margin-right="0"
     fit-margin-bottom="0"
     showguides="false" />
  <metadata
     id="metadata5">
    <rdf:RDF>
      <cc:Work
         rdf:about="">
        <dc:format>image/svg+xml</dc:format>
        <dc:type
           rdf:resource="http://purl.org/dc/dcmitype/StillImage" />
        <dc:title />
      </cc:Work>
    </rdf:RDF>
  </metadata>
  <g
     inkscape:label="Layer 1"
     inkscape:groupmode="layer"
     id="layer1"
     transform="translate(17.827578,-34.820673)">
    <path
       style="fill:none;stroke:#000000;stroke-width:0.26458332px;stroke-linecap:butt;stroke-linejoin:miter;stroke-opacity:1"
       d="m 103.03241,134.36649 54.10056,-93.372514 c 0,0 -20.59766,-9.747596 -37.79558,7.450321 L 84.726758,117.18543"
       id="path815"
       inkscape:connector-curvature="0"
       sodipodi:nodetypes="cccc" />
    <path
       style="fill:none;stroke:#000000;stroke-width:0.26458332px;stroke-linecap:butt;stroke-linejoin:miter;stroke-opacity:1"
       d="M 84.726758,117.18543 50.251307,47.927248 C 40.763239,33.093789 12.455805,40.443701 12.455805,40.443701 l 53.965301,93.922789 h 36.611304"
       id="path815-7"
       inkscape:connector-curvature="0"
       sodipodi:nodetypes="ccccc" />
    <flowRoot
       transform="matrix(0.26458333,0,0,0.26458333,-20.281556,54.120874)"
       xml:space="preserve"
       id="flowRoot2664-4"
       style="font-style:normal;font-weight:normal;font-size:16px;line-height:1.25;font-family:sans-serif;text-align:center;letter-spacing:0px;word-spacing:0px;text-anchor:middle;fill:#000000;fill-opacity:1;stroke:none"><flowRegion
         id="flowRegion2666-9"
         style="text-align:center;text-anchor:middle"><rect
           id="rect2668-5"
           width="99.353905"
           height="57.686378"
           x="256.57874"
           y="163.88492"
           style="text-align:center;text-anchor:middle" /></flowRegion><flowPara
         id="flowPara6672">Module</flowPara><flowPara
         id="flowPara6258">Design</flowPara></flowRoot>    <path
       style="fill:none;stroke:#000000;stroke-width:0.26458332px;stroke-linecap:butt;stroke-linejoin:miter;stroke-opacity:1"
       d="m 81.538019,111.39406 c -28.374649,0 -28.241014,0 -28.241014,0"
       id="path2728"
       inkscape:connector-curvature="0" />
    <path
       style="fill:none;stroke:#000000;stroke-width:0.2726312px;stroke-linecap:butt;stroke-linejoin:miter;stroke-opacity:1"
       d="m 71.976206,92.231398 c -29.866532,0 -29.866532,0 -29.866532,0"
       id="path2730"
       inkscape:connector-curvature="0" />
    <path
       style="fill:none;stroke:#000000;stroke-width:0.2738435px;stroke-linecap:butt;stroke-linejoin:miter;stroke-opacity:1"
       d="m 97.134724,92.231399 c 30.148756,0 30.148756,0 30.148756,0"
       id="path2732"
       inkscape:connector-curvature="0" />
    <path
       style="fill:none;stroke:#000000;stroke-width:0.26535377px;stroke-linecap:butt;stroke-linejoin:miter;stroke-opacity:1"
       d="m 88.092847,111.11058 c 28.535653,0 28.468443,0 28.468443,0"
       id="path2736"
       inkscape:connector-curvature="0" />
    <flowRoot
       transform="matrix(0.26458333,0,0,0.26458333,-25.394592,34.991287)"
       xml:space="preserve"
       id="flowRoot2664-4-9"
       style="font-style:normal;font-weight:normal;font-size:16px;line-height:1.25;font-family:sans-serif;letter-spacing:0px;word-spacing:0px;fill:#000000;fill-opacity:1;stroke:none"><flowRegion
         id="flowRegion2666-9-4"><rect
           id="rect2668-5-8"
           width="118.18787"
           height="47.982231"
           x="256.57874"
           y="163.88492" /></flowRegion><flowPara
         id="flowPara6666">System Design</flowPara><flowPara
         id="flowPara6670">Design</flowPara></flowRoot>    <flowRoot
       transform="matrix(0.26458333,0,0,0.26458333,-3.4788502,75.429383)"
       xml:space="preserve"
       id="flowRoot2664-4-2"
       style="font-style:normal;font-weight:normal;font-size:16px;line-height:1.25;font-family:sans-serif;text-align:center;letter-spacing:0px;word-spacing:0px;text-anchor:middle;fill:#000000;fill-opacity:1;stroke:none"><flowRegion
         id="flowRegion2666-9-9"
         style="text-align:center;text-anchor:middle"><rect
           id="rect2668-5-3"
           width="153.96777"
           height="50.621475"
           x="256.57874"
           y="163.88492"
           style="text-align:center;text-anchor:middle" /></flowRegion><flowPara
         id="flowPara6905">Module </flowPara><flowPara
         id="flowPara6260">Realisation</flowPara></flowRoot>    <flowRoot
       transform="matrix(0.26458333,0,0,0.26458333,26.794139,53.990277)"
       xml:space="preserve"
       id="flowRoot2664-4-8"
       style="font-style:normal;font-weight:normal;font-size:16px;line-height:1.25;font-family:sans-serif;letter-spacing:0px;word-spacing:0px;fill:#000000;fill-opacity:1;stroke:none"><flowRegion
         id="flowRegion2666-9-85"><rect
           id="rect2668-5-0"
           width="99.353905"
           height="61.257805"
           x="256.57874"
           y="163.88492" /></flowRegion><flowPara
         id="flowPara6672-6">  Integration  </flowPara><flowPara
         id="flowPara2254">Verification    </flowPara></flowRoot>    <flowRoot
       transform="matrix(0.26458333,0,0,0.26458333,31.201695,35.621226)"
       xml:space="preserve"
       id="flowRoot2664-4-9-4"
       style="font-style:normal;font-weight:normal;font-size:16px;line-height:1.25;font-family:sans-serif;text-align:end;letter-spacing:0px;word-spacing:0px;text-anchor:end;fill:#000000;fill-opacity:1;stroke:none"><flowRegion
         id="flowRegion2666-9-4-8"
         style="text-align:end;text-anchor:end"><rect
           id="rect2668-5-8-1"
           width="118.18787"
           height="47.982231"
           x="256.57874"
           y="163.88492"
           style="text-align:end;text-anchor:end" /></flowRegion><flowPara
         id="flowPara6670-3">System   </flowPara><flowPara
         id="flowPara984">Verification    </flowPara></flowRoot>    <path
       style="fill:none;stroke:#000000;stroke-width:0.27925986px;stroke-linecap:butt;stroke-linejoin:miter;stroke-opacity:1"
       d="m 63.160305,74.226694 c -31.336514,0 -31.336514,0 -31.336514,0"
       id="path2730-3"
       inkscape:connector-curvature="0" />
    <path
       style="fill:none;stroke:#000000;stroke-width:0.27985466px;stroke-linecap:butt;stroke-linejoin:miter;stroke-opacity:1"
       d="m 137.62718,74.415683 c -31.47015,0 -31.47015,0 -31.47015,0"
       id="path2730-3-6"
       inkscape:connector-curvature="0" />
    <flowRoot
       transform="matrix(0.26458333,0,0,0.26458333,-39.978034,11.951857)"
       xml:space="preserve"
       id="flowRoot2664-4-9-7"
       style="font-style:normal;font-weight:normal;font-size:16px;line-height:1.25;font-family:sans-serif;letter-spacing:0px;word-spacing:0px;fill:#000000;fill-opacity:1;stroke:none"><flowRegion
         id="flowRegion2666-9-4-5"><rect
           id="rect2668-5-8-3"
           width="113.18787"
           height="64.410812"
           x="256.57874"
           y="163.88492" /></flowRegion><flowPara
         id="flowPara6666-5" /><flowPara
         id="flowPara6670-6">Requirements</flowPara><flowPara
         id="flowPara2313">  Specification</flowPara></flowRoot>    <flowRoot
       transform="matrix(0.26458333,0,0,0.26458333,46.101747,12.035085)"
       xml:space="preserve"
       id="flowRoot2664-4-9-7-2"
       style="font-style:normal;font-weight:normal;font-size:16px;line-height:1.25;font-family:sans-serif;letter-spacing:0px;word-spacing:0px;fill:#000000;fill-opacity:1;stroke:none"><flowRegion
         id="flowRegion2666-9-4-5-9"><rect
           id="rect2668-5-8-3-1"
           width="113.18787"
           height="64.410812"
           x="256.57874"
           y="163.88492" /></flowRegion><flowPara
         id="flowPara6666-5-2" /><flowPara
         id="flowPara2313-0">  Functional</flowPara><flowPara
         id="flowPara2347">Validation</flowPara></flowRoot>    <flowRoot
       transform="matrix(0.26458333,0,0,0.26458333,-48.470813,-3.4621028)"
       xml:space="preserve"
       id="flowRoot2664-4-9-7-9"
       style="font-style:normal;font-weight:normal;font-size:16px;line-height:1.25;font-family:sans-serif;letter-spacing:0px;word-spacing:0px;fill:#000000;fill-opacity:1;stroke:none"><flowRegion
         id="flowRegion2666-9-4-5-3"><rect
           id="rect2668-5-8-3-6"
           width="113.18787"
           height="64.410812"
           x="256.57874"
           y="163.88492" /></flowRegion><flowPara
         id="flowPara2313-2">Safety </flowPara><flowPara
         id="flowPara2384">Requirement</flowPara><flowPara
         id="flowPara2386"> Specification</flowPara></flowRoot>    <path
       style="fill:none;stroke:#000000;stroke-width:0.28426754px;stroke-linecap:butt;stroke-linejoin:miter;stroke-opacity:1"
       d="m 54.942106,57.406754 c -32.470444,0 -32.470444,0 -32.470444,0"
       id="path2730-3-61"
       inkscape:connector-curvature="0" />
    <flowRoot
       transform="matrix(0.26458333,0,0,0.26458333,49.152906,-0.24930515)"
       xml:space="preserve"
       id="flowRoot2664-4-9-7-9-8"
       style="font-style:normal;font-weight:normal;font-size:16px;line-height:1.25;font-family:sans-serif;text-align:end;letter-spacing:0px;word-spacing:0px;text-anchor:end;fill:#000000;fill-opacity:1;stroke:none"><flowRegion
         id="flowRegion2666-9-4-5-3-7"
         style="text-align:end;text-anchor:end"><rect
           id="rect2668-5-8-3-6-9"
           width="113.18787"
           height="64.410812"
           x="256.57874"
           y="163.88492"
           style="text-align:end;text-anchor:end" /></flowRegion><flowPara
         id="flowPara2386-2"> Safety</flowPara><flowPara
         id="flowPara2440">Validation</flowPara><flowPara
         id="flowPara2438" /></flowRoot>    <path
       style="fill:none;stroke:#000000;stroke-width:0.28426757px;stroke-linecap:butt;stroke-linejoin:miter;stroke-opacity:1"
       d="m 148.11324,56.461814 c -32.47045,0 -32.47045,0 -32.47045,0"
       id="path2730-3-61-3"
       inkscape:connector-curvature="0" />
    <path
       style="fill:none;stroke:#000000;stroke-width:0.51814181px;stroke-linecap:round;stroke-linejoin:miter;stroke-opacity:1"
       d="m 40.229575,59.364471 2.479797,-4.576249 c 0,0 -0.619949,1.144062 -2.479797,4.576249 z"
       id="path2463-9"
       inkscape:connector-curvature="0"
       sodipodi:nodetypes="csc" />
    <path
       style="fill:none;stroke:#000000;stroke-width:0.57872361px;stroke-linecap:round;stroke-linejoin:miter;stroke-opacity:1"
       d="M 40.229575,59.364471 35.738296,57.005072"
       id="path2465-4"
       inkscape:connector-curvature="0"
       sodipodi:nodetypes="cc" />
    <path
       style="fill:none;stroke:#000000;stroke-width:0.51814181px;stroke-linecap:round;stroke-linejoin:miter;stroke-opacity:1"
       d="m 42.709375,54.788224 c -3.218977,1.976256 -3.315551,2.035551 -3.315551,2.035551 -3.642548,0.0984 -3.585909,0.09687 -3.585909,0.09687"
       id="path2467-9"
       inkscape:connector-curvature="0" />
    <path
       style="opacity:0.93199978;fill:#000000;fill-opacity:1;fill-rule:evenodd;stroke:#000000;stroke-width:0.1;stroke-linecap:round;stroke-miterlimit:4;stroke-dasharray:none;stroke-opacity:1"
       d="m 41.784914,55.713657 c -0.772303,0.465834 -1.536253,0.948259 -2.310061,1.409984 -0.878803,0.02487 -1.757775,0.04454 -2.636383,0.07592 1.086731,0.583377 2.178572,1.157195 3.273857,1.724594 0.606099,-1.087419 1.199128,-2.182159 1.786744,-3.2795 -0.03805,0.02299 -0.0761,0.046 -0.114157,0.069 z"
       id="path2867-0"
       inkscape:connector-curvature="0" />
    <path
       style="fill:none;stroke:#000000;stroke-width:0.51814181px;stroke-linecap:round;stroke-linejoin:miter;stroke-opacity:1"
       d="m 48.915834,76.469723 2.479797,-4.576251 c 0,0 -0.619949,1.144062 -2.479797,4.576251 z"
       id="path2463-91"
       inkscape:connector-curvature="0"
       sodipodi:nodetypes="csc" />
    <path
       style="fill:none;stroke:#000000;stroke-width:0.57872361px;stroke-linecap:round;stroke-linejoin:miter;stroke-opacity:1"
       d="M 48.915834,76.469723 44.424555,74.110322"
       id="path2465-7"
       inkscape:connector-curvature="0"
       sodipodi:nodetypes="cc" />
    <path
       style="fill:none;stroke:#000000;stroke-width:0.51814181px;stroke-linecap:round;stroke-linejoin:miter;stroke-opacity:1"
       d="m 51.395634,71.893474 c -3.218977,1.976256 -3.315551,2.035551 -3.315551,2.035551 -3.642548,0.0984 -3.585909,0.09687 -3.585909,0.09687"
       id="path2467-7"
       inkscape:connector-curvature="0" />
    <path
       style="opacity:0.93199978;fill:#000000;fill-opacity:1;fill-rule:evenodd;stroke:#000000;stroke-width:0.1;stroke-linecap:round;stroke-miterlimit:4;stroke-dasharray:none;stroke-opacity:1"
       d="m 50.471173,72.818907 c -0.772303,0.465834 -1.536253,0.948259 -2.310061,1.409984 -0.878803,0.02487 -1.757775,0.04454 -2.636383,0.07592 1.086731,0.583377 2.178572,1.157195 3.273857,1.724592 0.606099,-1.087417 1.199128,-2.182157 1.786744,-3.279498 -0.03805,0.02299 -0.0761,0.046 -0.114157,0.069 z"
       id="path2867-1"
       inkscape:connector-curvature="0" />
    <path
       style="fill:none;stroke:#000000;stroke-width:0.51814181px;stroke-linecap:round;stroke-linejoin:miter;stroke-opacity:1"
       d="m 58.62683,94.264558 2.479797,-4.576248 c 0,0 -0.619949,1.144062 -2.479797,4.576248 z"
       id="path2463-1"
       inkscape:connector-curvature="0"
       sodipodi:nodetypes="csc" />
    <path
       style="fill:none;stroke:#000000;stroke-width:0.57872361px;stroke-linecap:round;stroke-linejoin:miter;stroke-opacity:1"
       d="M 58.62683,94.264558 54.135551,91.90516"
       id="path2465-5"
       inkscape:connector-curvature="0"
       sodipodi:nodetypes="cc" />
    <path
       style="fill:none;stroke:#000000;stroke-width:0.51814181px;stroke-linecap:round;stroke-linejoin:miter;stroke-opacity:1"
       d="m 61.10663,89.688312 c -3.218977,1.976256 -3.315551,2.035551 -3.315551,2.035551 -3.642548,0.0984 -3.585909,0.09687 -3.585909,0.09687"
       id="path2467-97"
       inkscape:connector-curvature="0" />
    <path
       style="opacity:0.93199978;fill:#000000;fill-opacity:1;fill-rule:evenodd;stroke:#000000;stroke-width:0.1;stroke-linecap:round;stroke-miterlimit:4;stroke-dasharray:none;stroke-opacity:1"
       d="m 60.182169,90.613745 c -0.772303,0.465834 -1.536253,0.948259 -2.310061,1.409984 -0.878803,0.02487 -1.757775,0.04454 -2.636383,0.07592 1.086731,0.583379 2.178572,1.157199 3.273857,1.724589 0.606099,-1.08741 1.199128,-2.182154 1.786744,-3.279495 -0.03805,0.02299 -0.0761,0.046 -0.114157,0.069 z"
       id="path2867-7"
       inkscape:connector-curvature="0" />
    <path
       style="fill:none;stroke:#000000;stroke-width:0.51814181px;stroke-linecap:round;stroke-linejoin:miter;stroke-opacity:1"
       d="m 68.265223,113.73033 2.479797,-4.57625 c 0,0 -0.619949,1.14407 -2.479797,4.57625 z"
       id="path2463-6"
       inkscape:connector-curvature="0"
       sodipodi:nodetypes="csc" />
    <path
       style="fill:none;stroke:#000000;stroke-width:0.57872361px;stroke-linecap:round;stroke-linejoin:miter;stroke-opacity:1"
       d="m 68.265223,113.73033 -4.491279,-2.3594"
       id="path2465-73"
       inkscape:connector-curvature="0"
       sodipodi:nodetypes="cc" />
    <path
       style="fill:none;stroke:#000000;stroke-width:0.51814181px;stroke-linecap:round;stroke-linejoin:miter;stroke-opacity:1"
       d="m 70.745023,109.15409 c -3.218977,1.97625 -3.315551,2.03555 -3.315551,2.03555 -3.642548,0.0984 -3.585909,0.0969 -3.585909,0.0969"
       id="path2467-6"
       inkscape:connector-curvature="0" />
    <path
       style="opacity:0.93199978;fill:#000000;fill-opacity:1;fill-rule:evenodd;stroke:#000000;stroke-width:0.1;stroke-linecap:round;stroke-miterlimit:4;stroke-dasharray:none;stroke-opacity:1"
       d="m 69.820562,110.07952 c -0.772303,0.46583 -1.536253,0.94826 -2.310061,1.40998 -0.878803,0.0249 -1.757775,0.0445 -2.636383,0.0759 1.086731,0.58338 2.178572,1.1572 3.273857,1.7246 0.606099,-1.08742 1.199128,-2.18216 1.786744,-3.2795 -0.03805,0.023 -0.0761,0.046 -0.114157,0.069 z"
       id="path2867-5"
       inkscape:connector-curvature="0" />
    <path
       style="fill:none;stroke:#000000;stroke-width:0.51814181px;stroke-linecap:round;stroke-linejoin:miter;stroke-opacity:1"
       d="m 130.66789,58.356821 -2.4798,-4.576249 c 0,0 0.61995,1.144062 2.4798,4.576249 z"
       id="path2463-12"
       inkscape:connector-curvature="0"
       sodipodi:nodetypes="csc" />
    <path
       style="fill:none;stroke:#000000;stroke-width:0.57872361px;stroke-linecap:round;stroke-linejoin:miter;stroke-opacity:1"
       d="m 130.66789,58.356821 4.49128,-2.359399"
       id="path2465-9"
       inkscape:connector-curvature="0"
       sodipodi:nodetypes="cc" />
    <path
       style="fill:none;stroke:#000000;stroke-width:0.51814181px;stroke-linecap:round;stroke-linejoin:miter;stroke-opacity:1"
       d="m 128.18809,53.780574 c 3.21898,1.976256 3.31555,2.035551 3.31555,2.035551 3.64255,0.0984 3.58591,0.09687 3.58591,0.09687"
       id="path2467-3"
       inkscape:connector-curvature="0" />
    <path
       style="opacity:0.93199978;fill:#000000;fill-opacity:1;fill-rule:evenodd;stroke:#000000;stroke-width:0.1;stroke-linecap:round;stroke-miterlimit:4;stroke-dasharray:none;stroke-opacity:1"
       d="m 129.11255,54.706008 c 0.7723,0.465833 1.53625,0.948258 2.31006,1.409983 0.87881,0.02487 1.75778,0.04454 2.63638,0.07592 -1.08673,0.583378 -2.17857,1.157195 -3.27385,1.724594 -0.6061,-1.087419 -1.19913,-2.182159 -1.78675,-3.2795 0.038,0.02299 0.0761,0.046 0.11416,0.069 z"
       id="path2867-9"
       inkscape:connector-curvature="0" />
    <path
       style="fill:none;stroke:#000000;stroke-width:0.51814181px;stroke-linecap:round;stroke-linejoin:miter;stroke-opacity:1"
       d="m 121.40747,76.688666 -2.4798,-4.576249 c 0,0 0.61995,1.144062 2.4798,4.576249 z"
       id="path2463-12-0"
       inkscape:connector-curvature="0"
       sodipodi:nodetypes="csc" />
    <path
       style="fill:none;stroke:#000000;stroke-width:0.57872361px;stroke-linecap:round;stroke-linejoin:miter;stroke-opacity:1"
       d="m 121.40747,76.688666 4.49128,-2.359399"
       id="path2465-9-8"
       inkscape:connector-curvature="0"
       sodipodi:nodetypes="cc" />
    <path
       style="fill:none;stroke:#000000;stroke-width:0.51814181px;stroke-linecap:round;stroke-linejoin:miter;stroke-opacity:1"
       d="m 118.92767,72.112419 c 3.21898,1.976256 3.31555,2.035551 3.31555,2.035551 3.64255,0.0984 3.58591,0.09687 3.58591,0.09687"
       id="path2467-3-8"
       inkscape:connector-curvature="0" />
    <path
       style="opacity:0.93199978;fill:#000000;fill-opacity:1;fill-rule:evenodd;stroke:#000000;stroke-width:0.1;stroke-linecap:round;stroke-miterlimit:4;stroke-dasharray:none;stroke-opacity:1"
       d="m 119.85213,73.037853 c 0.7723,0.465833 1.53625,0.948258 2.31006,1.409983 0.87881,0.02487 1.75778,0.04454 2.63638,0.07592 -1.08673,0.583378 -2.17857,1.157195 -3.27385,1.724594 -0.6061,-1.087419 -1.19913,-2.182159 -1.78675,-3.2795 0.038,0.02299 0.0761,0.046 0.11416,0.069 z"
       id="path2867-9-5"
       inkscape:connector-curvature="0" />
    <path
       style="fill:none;stroke:#000000;stroke-width:0.51814181px;stroke-linecap:round;stroke-linejoin:miter;stroke-opacity:1"
       d="m 112.14706,94.642535 -2.4798,-4.576249 c 0,0 0.61995,1.144062 2.4798,4.576249 z"
       id="path2463-12-09"
       inkscape:connector-curvature="0"
       sodipodi:nodetypes="csc" />
    <path
       style="fill:none;stroke:#000000;stroke-width:0.57872361px;stroke-linecap:round;stroke-linejoin:miter;stroke-opacity:1"
       d="m 112.14706,94.642535 4.49128,-2.359399"
       id="path2465-9-6"
       inkscape:connector-curvature="0"
       sodipodi:nodetypes="cc" />
    <path
       style="fill:none;stroke:#000000;stroke-width:0.51814181px;stroke-linecap:round;stroke-linejoin:miter;stroke-opacity:1"
       d="m 109.66726,90.066288 c 3.21898,1.976256 3.31555,2.035551 3.31555,2.035551 3.64255,0.0984 3.58591,0.09687 3.58591,0.09687"
       id="path2467-3-3"
       inkscape:connector-curvature="0" />
    <path
       style="opacity:0.93199978;fill:#000000;fill-opacity:1;fill-rule:evenodd;stroke:#000000;stroke-width:0.1;stroke-linecap:round;stroke-miterlimit:4;stroke-dasharray:none;stroke-opacity:1"
       d="m 110.59172,90.991722 c 0.7723,0.465833 1.53625,0.948258 2.31006,1.409983 0.87881,0.02487 1.75778,0.04454 2.63638,0.07592 -1.08673,0.583378 -2.17857,1.157195 -3.27385,1.724594 -0.6061,-1.087419 -1.19913,-2.182159 -1.78675,-3.2795 0.038,0.02299 0.0761,0.046 0.11416,0.069 z"
       id="path2867-9-8"
       inkscape:connector-curvature="0" />
    <path
       style="fill:none;stroke:#000000;stroke-width:0.51814181px;stroke-linecap:round;stroke-linejoin:miter;stroke-opacity:1"
       d="m 101.9417,113.35236 -2.479805,-4.57625 c 0,0 0.619955,1.14406 2.479805,4.57625 z"
       id="path2463-12-5"
       inkscape:connector-curvature="0"
       sodipodi:nodetypes="csc" />
    <path
       style="fill:none;stroke:#000000;stroke-width:0.57872361px;stroke-linecap:round;stroke-linejoin:miter;stroke-opacity:1"
       d="m 101.9417,113.35236 4.49128,-2.3594"
       id="path2465-9-61"
       inkscape:connector-curvature="0"
       sodipodi:nodetypes="cc" />
    <path
       style="fill:none;stroke:#000000;stroke-width:0.51814181px;stroke-linecap:round;stroke-linejoin:miter;stroke-opacity:1"
       d="m 99.461895,108.77611 c 3.218985,1.97626 3.315555,2.03555 3.315555,2.03555 3.64255,0.0984 3.58591,0.0969 3.58591,0.0969"
       id="path2467-3-1"
       inkscape:connector-curvature="0" />
    <path
       style="opacity:0.93199978;fill:#000000;fill-opacity:1;fill-rule:evenodd;stroke:#000000;stroke-width:0.1;stroke-linecap:round;stroke-miterlimit:4;stroke-dasharray:none;stroke-opacity:1"
       d="m 100.38636,109.70154 c 0.7723,0.46584 1.53625,0.94826 2.31006,1.40999 0.87881,0.0249 1.75778,0.0445 2.63638,0.0759 -1.08673,0.58337 -2.17857,1.15719 -3.27385,1.72459 -0.6061,-1.08742 -1.19913,-2.18216 -1.78675,-3.2795 0.038,0.023 0.0761,0.046 0.11416,0.069 z"
       id="path2867-9-59"
       inkscape:connector-curvature="0" />
    <path
       style="fill:none;stroke:#000000;stroke-width:0.26499999;stroke-linecap:butt;stroke-linejoin:miter;stroke-miterlimit:4;stroke-dasharray:none;stroke-opacity:1;marker-end:url(#marker7177)"
       d="m 119.33739,48.444297 c -68.769998,0 -68.903631,0 -68.903631,0"
       id="path3061"
       inkscape:connector-curvature="0" />
    <path
       style="fill:none;stroke:#000000;stroke-width:0.26458332px;stroke-linecap:butt;stroke-linejoin:miter;stroke-opacity:1;marker-end:url(#marker3205)"
       d="m 110.43577,66.045016 c -50.781214,0 -50.914849,0 -50.914849,0"
       id="path3063"
       inkscape:connector-curvature="0" />
    <path
       style="fill:none;stroke:#000000;stroke-width:0.26458332px;stroke-linecap:butt;stroke-linejoin:miter;stroke-opacity:1;marker-end:url(#marker3281)"
       d="m 101.3486,83.684805 -32.874149,0.06682"
       id="path3065"
       inkscape:connector-curvature="0"
       sodipodi:nodetypes="cc" />
    <flowRoot
       xml:space="preserve"
       id="flowRoot3069"
       style="font-style:normal;font-weight:normal;font-size:16px;line-height:1.25;font-family:sans-serif;letter-spacing:0px;word-spacing:0px;fill:#000000;fill-opacity:1;stroke:none"
       transform="matrix(0.26458333,0,0,0.26458333,-26.305021,29.789289)"><flowRegion
         id="flowRegion3071"><rect
           id="rect3073"
           width="80"
           height="25.714285"
           x="392.14285"
           y="50.095257" /></flowRegion><flowPara
         id="flowPara3075"
         style="font-size:10.66666698px">Validation</flowPara></flowRoot>    <flowRoot
       xml:space="preserve"
       id="flowRoot3069-3"
       style="font-style:normal;font-weight:normal;font-size:16px;line-height:1.25;font-family:sans-serif;letter-spacing:0px;word-spacing:0px;fill:#000000;fill-opacity:1;stroke:none"
       transform="matrix(0.26458333,0,0,0.26458333,-26.199378,47.6546)"><flowRegion
         id="flowRegion3071-0"><rect
           id="rect3073-4"
           width="80"
           height="25.714285"
           x="392.14285"
           y="50.095257" /></flowRegion><flowPara
         id="flowPara3075-4"
         style="font-size:10.66666698px">Validation</flowPara></flowRoot>    <flowRoot
       xml:space="preserve"
       id="flowRoot3069-3-4"
       style="font-style:normal;font-weight:normal;font-size:16px;line-height:1.25;font-family:sans-serif;letter-spacing:0px;word-spacing:0px;fill:#000000;fill-opacity:1;stroke:none"
       transform="matrix(0.26458333,0,0,0.26458333,-26.955331,65.041505)"><flowRegion
         id="flowRegion3071-0-4"><rect
           id="rect3073-4-7"
           width="100.64254"
           height="26.081898"
           x="392.14285"
           y="50.095257" /></flowRegion><flowPara
         id="flowPara3075-4-6"
         style="font-size:10.66666698px">Verification</flowPara></flowRoot>    <flowRoot
       xml:space="preserve"
       id="flowRoot3069-3-4-9"
       style="font-style:normal;font-weight:normal;font-size:16px;line-height:1.25;font-family:sans-serif;letter-spacing:0px;word-spacing:0px;fill:#000000;fill-opacity:1;stroke:none"
       transform="matrix(0.26458333,0,0,0.26458333,-26.884164,82.42841)"><flowRegion
         id="flowRegion3071-0-4-6"><rect
           id="rect3073-4-7-2"
           width="100.64254"
           height="26.081898"
           x="392.14285"
           y="50.095257" /></flowRegion><flowPara
         id="flowPara3075-4-6-1"
         style="font-size:10.66666698px">Verification</flowPara></flowRoot>    <path
       style="fill:none;stroke:#000000;stroke-width:0.26458332px;stroke-linecap:butt;stroke-linejoin:miter;stroke-opacity:1;marker-start:url(#marker7095)"
       d="m 78.229787,103.66321 13.163025,-0.13364"
       id="path4735"
       inkscape:connector-curvature="0"
       sodipodi:nodetypes="cc" />
    <rect
       style="opacity:0.93199978;fill:none;fill-opacity:1;fill-rule:evenodd;stroke:#000000;stroke-width:0.50444388;stroke-linecap:round;stroke-miterlimit:4;stroke-dasharray:none;stroke-opacity:1"
       id="rect4737"
       width="18.376516"
       height="14.392108"
       x="-17.528761"
       y="37.718731" />
    <rect
       style="opacity:0.93199978;fill:none;fill-opacity:1;fill-rule:evenodd;stroke:#000000;stroke-width:0.62282938;stroke-linecap:round;stroke-miterlimit:4;stroke-dasharray:none;stroke-opacity:1"
       id="rect4737-7"
       width="29.5483"
       height="13.644811"
       x="-17.299749"
       y="54.760921" />
    <text
       xml:space="preserve"
       style="font-style:normal;font-weight:normal;font-size:4.23333311px;line-height:1.25;font-family:sans-serif;letter-spacing:0px;word-spacing:0px;fill:#000000;fill-opacity:1;stroke:none;stroke-width:0.26458332"
       x="-17.044605"
       y="43.297501"
       id="text4756"><tspan
         sodipodi:role="line"
         id="tspan4754"
         x="-17.044605"
         y="43.297501"
         style="stroke-width:0.26458332">Hazard</tspan><tspan
         sodipodi:role="line"
         x="-17.044605"
         y="48.589169"
         style="stroke-width:0.26458332"
         id="tspan4758">Analysis</tspan></text>
    <text
       xml:space="preserve"
       style="font-style:normal;font-weight:normal;font-size:4.23333311px;line-height:1.25;font-family:sans-serif;letter-spacing:0px;word-spacing:0px;fill:#000000;fill-opacity:1;stroke:none;stroke-width:0.26458332"
       x="-16.040312"
       y="60.122906"
       id="text4756-8"><tspan
         sodipodi:role="line"
         x="-16.040312"
         y="60.122906"
         style="stroke-width:0.26458332"
         id="tspan4758-7">Users</tspan><tspan
         sodipodi:role="line"
         x="-16.040312"
         y="65.414574"
         style="stroke-width:0.26458332"
         id="tspan4783">Specification</tspan></text>
    <path
       style="fill:none;stroke:#000000;stroke-width:0.26458332px;stroke-linecap:butt;stroke-linejoin:miter;stroke-opacity:1;marker-end:url(#marker4691)"
       d="m 0.72027713,44.366576 c 12.47321187,0 12.66220187,0 12.66220187,0"
       id="path4785"
       inkscape:connector-curvature="0" />
    <path
       style="fill:none;stroke:#000000;stroke-width:0.31007272px;stroke-linecap:butt;stroke-linejoin:miter;stroke-opacity:1;marker-end:url(#marker4809)"
       d="m 12.24855,61.977197 c 11.68017,0 11.68017,0 11.68017,0"
       id="path4787"
       inkscape:connector-curvature="0" />
    <rect
       style="opacity:0.93199978;fill:none;fill-opacity:1;fill-rule:evenodd;stroke:#000000;stroke-width:0.54016733;stroke-linecap:round;stroke-miterlimit:4;stroke-dasharray:none;stroke-opacity:1"
       id="rect4919"
       width="30.695827"
       height="19.365366"
       x="164.0434"
       y="41.342667" />
    <text
       xml:space="preserve"
       style="font-style:normal;font-weight:normal;font-size:4.23333311px;line-height:1.25;font-family:sans-serif;letter-spacing:0px;word-spacing:0px;fill:#000000;fill-opacity:1;stroke:none;stroke-width:0.26458332"
       x="168.97729"
       y="47.769482"
       id="text4923"><tspan
         sodipodi:role="line"
         id="tspan4921"
         x="168.97729"
         y="47.769482"
         style="stroke-width:0.26458332">Validated</tspan><tspan
         sodipodi:role="line"
         x="168.97729"
         y="53.06115"
         style="stroke-width:0.26458332"
         id="tspan4925">System</tspan><tspan
         sodipodi:role="line"
         x="168.97729"
         y="58.352814"
         style="stroke-width:0.26458332"
         id="tspan5779">Release</tspan></text>
    <path
       style="fill:none;stroke:#000000;stroke-width:0.26026651px;stroke-linecap:butt;stroke-linejoin:miter;stroke-opacity:1;marker-end:url(#marker4937)"
       d="m 152.62674,48.271593 c 10.86203,0 10.86203,0 10.86203,0"
       id="path4927"
       inkscape:connector-curvature="0" />
  </g>
</svg>
